# MagicaVoxel @ Ephtracy

# group
o 

# material
mtllib flor2.mtl
usemtl palette

# normals
vn -1 0 0
vn 1 0 0
vn 0 0 1
vn 0 0 -1
vn 0 -1 0
vn 0 1 0

# texcoords
vt 0.474609 0.5
vt 0.494141 0.5
vt 0.591797 0.5
vt 0.802734 0.5
vt 0.873047 0.5

# verts
v 1.8 2.1 -2.4
v 1.8 2.1 -2.5
v 1.8 2.2 -2.4
v 1.8 2.2 -2.5
v 1.9 2 -2.4
v 1.9 2 -2.5
v 1.9 2.1 -2.3
v 1.9 2.1 -2.4
v 1.9 2.1 -2.5
v 1.9 2.1 -2.6
v 1.9 2.2 -2.3
v 1.9 2.2 -2.4
v 1.9 2.2 -2.5
v 1.9 2.2 -2.6
v 2.1 2.1 -2
v 2.1 2.1 -2.1
v 2.1 2.2 -2
v 2.1 2.2 -2.1
v 2.2 2 -2
v 2.2 2 -2.1
v 2.2 2.1 -1.9
v 2.2 2.1 -2
v 2.2 2.1 -2.1
v 2.2 2.1 -2.2
v 2.2 2.2 -1.9
v 2.2 2.2 -2
v 2.2 2.2 -2.1
v 2.2 2.2 -2.2
v 2 2 -2.4
v 2 2 -2.5
v 2 2.1 -2.3
v 2 2.1 -2.4
v 2 2.1 -2.5
v 2 2.1 -2.6
v 2 2.2 -2.3
v 2 2.2 -2.4
v 2 2.2 -2.5
v 2 2.2 -2.6
v 2.1 2.1 -2.4
v 2.1 2.1 -2.5
v 2.1 2.2 -2.4
v 2.1 2.2 -2.5
v 2.3 2 -2
v 2.3 2 -2.1
v 2.3 2.1 -1.9
v 2.3 2.1 -2
v 2.3 2.1 -2.1
v 2.3 2.1 -2.2
v 2.3 2.2 -1.9
v 2.3 2.2 -2
v 2.3 2.2 -2.1
v 2.3 2.2 -2.2
v 2.4 2.1 -2
v 2.4 2.1 -2.1
v 2.4 2.2 -2
v 2.4 2.2 -2.1
v 2.2 2.1 -1.9
v 2.2 2.2 -1.9
v 2.3 2.1 -1.9
v 2.3 2.2 -1.9
v 2.1 2.1 -2
v 2.1 2.2 -2
v 2.2 2 -2
v 2.2 2.1 -2
v 2.2 2.2 -2
v 2.3 2 -2
v 2.3 2.1 -2
v 2.3 2.2 -2
v 2.4 2.1 -2
v 2.4 2.2 -2
v 1.9 2.1 -2.3
v 1.9 2.2 -2.3
v 2 2.1 -2.3
v 2 2.2 -2.3
v 1.8 2.1 -2.4
v 1.8 2.2 -2.4
v 1.9 2 -2.4
v 1.9 2.1 -2.4
v 1.9 2.2 -2.4
v 2 2 -2.4
v 2 2.1 -2.4
v 2 2.2 -2.4
v 2.1 2.1 -2.4
v 2.1 2.2 -2.4
v 2.1 2.1 -2.1
v 2.1 2.2 -2.1
v 2.2 2 -2.1
v 2.2 2.1 -2.1
v 2.2 2.2 -2.1
v 2.3 2 -2.1
v 2.3 2.1 -2.1
v 2.3 2.2 -2.1
v 2.4 2.1 -2.1
v 2.4 2.2 -2.1
v 2.2 2.1 -2.2
v 2.2 2.2 -2.2
v 2.3 2.1 -2.2
v 2.3 2.2 -2.2
v 1.8 2.1 -2.5
v 1.8 2.2 -2.5
v 1.9 2 -2.5
v 1.9 2.1 -2.5
v 1.9 2.2 -2.5
v 2 2 -2.5
v 2 2.1 -2.5
v 2 2.2 -2.5
v 2.1 2.1 -2.5
v 2.1 2.2 -2.5
v 1.9 2.1 -2.6
v 1.9 2.2 -2.6
v 2 2.1 -2.6
v 2 2.2 -2.6
v 2.2 2 -2
v 2.3 2 -2
v 2.2 2 -2.1
v 2.3 2 -2.1
v 1.9 2 -2.4
v 2 2 -2.4
v 1.9 2 -2.5
v 2 2 -2.5
v 2.2 2.1 -1.9
v 2.3 2.1 -1.9
v 2.1 2.1 -2
v 2.2 2.1 -2
v 2.3 2.1 -2
v 2.4 2.1 -2
v 2.1 2.1 -2.1
v 2.2 2.1 -2.1
v 2.3 2.1 -2.1
v 2.4 2.1 -2.1
v 2.2 2.1 -2.2
v 2.3 2.1 -2.2
v 1.9 2.1 -2.3
v 2 2.1 -2.3
v 1.8 2.1 -2.4
v 1.9 2.1 -2.4
v 2 2.1 -2.4
v 2.1 2.1 -2.4
v 1.8 2.1 -2.5
v 1.9 2.1 -2.5
v 2 2.1 -2.5
v 2.1 2.1 -2.5
v 1.9 2.1 -2.6
v 2 2.1 -2.6
v 2.2 2.2 -1.9
v 2.3 2.2 -1.9
v 2.1 2.2 -2
v 2.2 2.2 -2
v 2.3 2.2 -2
v 2.4 2.2 -2
v 2.1 2.2 -2.1
v 2.2 2.2 -2.1
v 2.3 2.2 -2.1
v 2.4 2.2 -2.1
v 2.2 2.2 -2.2
v 2.3 2.2 -2.2
v 1.9 2.2 -2.3
v 2 2.2 -2.3
v 1.8 2.2 -2.4
v 1.9 2.2 -2.4
v 2 2.2 -2.4
v 2.1 2.2 -2.4
v 1.8 2.2 -2.5
v 1.9 2.2 -2.5
v 2 2.2 -2.5
v 2.1 2.2 -2.5
v 1.9 2.2 -2.6
v 2 2.2 -2.6

# faces
f 3/5/1 2/5/1 1/5/1
f 4/5/1 2/5/1 3/5/1
f 8/3/1 6/3/1 5/3/1
f 9/3/1 6/3/1 8/3/1
f 11/5/1 8/5/1 7/5/1
f 12/5/1 8/5/1 11/5/1
f 13/5/1 10/5/1 9/5/1
f 14/5/1 10/5/1 13/5/1
f 17/4/1 16/4/1 15/4/1
f 18/4/1 16/4/1 17/4/1
f 22/3/1 20/3/1 19/3/1
f 23/3/1 20/3/1 22/3/1
f 25/4/1 22/4/1 21/4/1
f 26/4/1 22/4/1 25/4/1
f 27/4/1 24/4/1 23/4/1
f 28/4/1 24/4/1 27/4/1
f 29/3/2 30/3/2 32/3/2
f 32/3/2 30/3/2 33/3/2
f 31/5/2 32/5/2 35/5/2
f 35/5/2 32/5/2 36/5/2
f 33/5/2 34/5/2 37/5/2
f 37/5/2 34/5/2 38/5/2
f 39/5/2 40/5/2 41/5/2
f 41/5/2 40/5/2 42/5/2
f 43/3/2 44/3/2 46/3/2
f 46/3/2 44/3/2 47/3/2
f 45/4/2 46/4/2 49/4/2
f 49/4/2 46/4/2 50/4/2
f 47/4/2 48/4/2 51/4/2
f 51/4/2 48/4/2 52/4/2
f 53/4/2 54/4/2 55/4/2
f 55/4/2 54/4/2 56/4/2
f 59/4/3 58/4/3 57/4/3
f 60/4/3 58/4/3 59/4/3
f 64/4/3 62/4/3 61/4/3
f 65/4/3 62/4/3 64/4/3
f 66/3/3 64/3/3 63/3/3
f 67/3/3 64/3/3 66/3/3
f 69/4/3 68/4/3 67/4/3
f 70/4/3 68/4/3 69/4/3
f 73/5/3 72/5/3 71/5/3
f 74/5/3 72/5/3 73/5/3
f 78/5/3 76/5/3 75/5/3
f 79/5/3 76/5/3 78/5/3
f 80/3/3 78/3/3 77/3/3
f 81/3/3 78/3/3 80/3/3
f 83/5/3 82/5/3 81/5/3
f 84/5/3 82/5/3 83/5/3
f 85/4/4 86/4/4 88/4/4
f 88/4/4 86/4/4 89/4/4
f 87/3/4 88/3/4 90/3/4
f 90/3/4 88/3/4 91/3/4
f 91/4/4 92/4/4 93/4/4
f 93/4/4 92/4/4 94/4/4
f 95/4/4 96/4/4 97/4/4
f 97/4/4 96/4/4 98/4/4
f 99/5/4 100/5/4 102/5/4
f 102/5/4 100/5/4 103/5/4
f 101/3/4 102/3/4 104/3/4
f 104/3/4 102/3/4 105/3/4
f 105/5/4 106/5/4 107/5/4
f 107/5/4 106/5/4 108/5/4
f 109/5/4 110/5/4 111/5/4
f 111/5/4 110/5/4 112/5/4
f 115/3/5 114/3/5 113/3/5
f 116/3/5 114/3/5 115/3/5
f 119/3/5 118/3/5 117/3/5
f 120/3/5 118/3/5 119/3/5
f 124/4/5 122/4/5 121/4/5
f 125/4/5 122/4/5 124/4/5
f 127/4/5 124/4/5 123/4/5
f 128/4/5 124/4/5 127/4/5
f 129/4/5 126/4/5 125/4/5
f 130/4/5 126/4/5 129/4/5
f 131/4/5 129/4/5 128/4/5
f 132/4/5 129/4/5 131/4/5
f 136/5/5 134/5/5 133/5/5
f 137/5/5 134/5/5 136/5/5
f 139/5/5 136/5/5 135/5/5
f 140/5/5 136/5/5 139/5/5
f 141/5/5 138/5/5 137/5/5
f 142/5/5 138/5/5 141/5/5
f 143/5/5 141/5/5 140/5/5
f 144/5/5 141/5/5 143/5/5
f 145/4/6 146/4/6 148/4/6
f 148/4/6 146/4/6 149/4/6
f 147/4/6 148/4/6 151/4/6
f 148/1/6 149/1/6 152/1/6
f 151/4/6 148/4/6 152/4/6
f 149/4/6 150/4/6 153/4/6
f 152/1/6 149/1/6 153/1/6
f 153/4/6 150/4/6 154/4/6
f 152/4/6 153/4/6 155/4/6
f 155/4/6 153/4/6 156/4/6
f 157/5/6 158/5/6 160/5/6
f 160/5/6 158/5/6 161/5/6
f 159/5/6 160/5/6 163/5/6
f 160/2/6 161/2/6 164/2/6
f 163/5/6 160/5/6 164/5/6
f 161/5/6 162/5/6 165/5/6
f 164/2/6 161/2/6 165/2/6
f 165/5/6 162/5/6 166/5/6
f 164/5/6 165/5/6 167/5/6
f 167/5/6 165/5/6 168/5/6
