# MagicaVoxel @ Ephtracy

# group
o 

# material
mtllib comida-5.mtl
usemtl palette

# normals
vn -1 0 0
vn 1 0 0
vn 0 0 1
vn 0 0 -1
vn 0 -1 0
vn 0 1 0

# texcoords
vt 0.435547 0.5
vt 0.912109 0.5

# verts
v 10.2 0.8 -2.5
v 10.2 0.8 -3.7
v 10.2 1.2 -2.5
v 10.2 1.2 -3.7
v 10.6 0.4 -2.5
v 10.6 0.4 -3.7
v 10.6 0.8 -2.5
v 10.6 0.8 -3.7
v 10.6 1.2 -2.5
v 10.6 1.2 -3.7
v 10.6 1.6 -2.5
v 10.6 1.6 -3.7
v 11 0.4 -2.1
v 11 0.4 -2.5
v 11 0.4 -3.7
v 11 0.4 -4.1
v 11 1.2 -2.5
v 11 1.2 -3.7
v 11 1.6 -2.1
v 11 1.6 -2.5
v 11 1.6 -2.9
v 11 1.6 -3.3
v 11 1.6 -3.7
v 11 1.6 -4.1
v 11 2 -2.9
v 11 2 -3.3
v 11.4 0.4 -1.7
v 11.4 0.4 -2.1
v 11.4 0.4 -4.1
v 11.4 0.4 -4.5
v 11.4 1.2 -1.7
v 11.4 1.2 -2.1
v 11.4 1.2 -4.1
v 11.4 1.2 -4.5
v 11.4 1.6 -2.5
v 11.4 1.6 -2.9
v 11.4 1.6 -3.3
v 11.4 1.6 -3.7
v 11.4 2 -2.5
v 11.4 2 -2.9
v 11.4 2 -3.3
v 11.4 2 -3.7
v 11.4 2.4 -2.9
v 11.4 2.4 -3.3
v 11.8 2 -2.5
v 11.8 2 -2.9
v 11.8 2 -3.3
v 11.8 2 -3.7
v 11.8 2.4 -2.5
v 11.8 2.4 -2.9
v 11.8 2.4 -3.3
v 11.8 2.4 -3.7
v 13 1.2 -1.7
v 13 1.2 -2.1
v 13 1.6 -1.7
v 13 1.6 -2.1
v 13 1.6 -2.5
v 13 2 -2.1
v 13 2 -2.5
v 14.2 1.6 -2.1
v 14.2 1.6 -2.5
v 14.2 2 -2.1
v 14.2 2 -2.5
v 13.4 1.6 -2.1
v 13.4 1.6 -2.5
v 13.4 2 -2.1
v 13.4 2 -2.5
v 13.8 1.2 -1.7
v 13.8 1.2 -2.1
v 13.8 1.6 -1.7
v 13.8 1.6 -2.1
v 14.2 0.4 -1.7
v 14.2 0.4 -2.1
v 14.2 0.4 -4.1
v 14.2 0.4 -4.5
v 14.2 1.2 -1.7
v 14.2 1.2 -2.1
v 14.2 1.2 -4.1
v 14.2 1.2 -4.5
v 14.2 1.6 -3.3
v 14.2 1.6 -3.7
v 14.2 2 -2.5
v 14.2 2 -3.3
v 14.2 2 -3.7
v 14.2 2.4 -2.5
v 14.2 2.4 -3.7
v 14.6 0.4 -2.1
v 14.6 0.4 -2.5
v 14.6 0.4 -3.7
v 14.6 0.4 -4.1
v 14.6 1.2 -2.5
v 14.6 1.2 -3.7
v 14.6 1.6 -2.1
v 14.6 1.6 -3.3
v 14.6 1.6 -4.1
v 14.6 2 -2.1
v 14.6 2 -3.3
v 15 0.4 -2.5
v 15 0.4 -3.7
v 15 1.2 -2.5
v 15 1.2 -3.7
v 11.4 0.4 -1.7
v 11.4 1.2 -1.7
v 13 1.2 -1.7
v 13 1.6 -1.7
v 13.8 1.2 -1.7
v 13.8 1.6 -1.7
v 14.2 0.4 -1.7
v 14.2 1.2 -1.7
v 11 0.4 -2.1
v 11 1.6 -2.1
v 11.4 0.4 -2.1
v 11.4 1.2 -2.1
v 13 1.2 -2.1
v 13 1.6 -2.1
v 13 2 -2.1
v 13.4 1.6 -2.1
v 13.4 2 -2.1
v 13.8 1.2 -2.1
v 13.8 1.6 -2.1
v 14.2 0.4 -2.1
v 14.2 1.2 -2.1
v 14.2 1.6 -2.1
v 14.2 2 -2.1
v 14.6 0.4 -2.1
v 14.6 1.6 -2.1
v 14.6 2 -2.1
v 10.2 0.8 -2.5
v 10.2 1.2 -2.5
v 10.6 0.4 -2.5
v 10.6 0.8 -2.5
v 10.6 1.2 -2.5
v 10.6 1.6 -2.5
v 11 0.4 -2.5
v 11 1.2 -2.5
v 11 1.6 -2.5
v 11.4 1.6 -2.5
v 11.4 2 -2.5
v 11.8 2 -2.5
v 11.8 2.4 -2.5
v 13 1.6 -2.5
v 13 2 -2.5
v 13.4 1.6 -2.5
v 13.4 2 -2.5
v 14.2 1.6 -2.5
v 14.2 2 -2.5
v 14.2 2.4 -2.5
v 14.6 0.4 -2.5
v 14.6 1.2 -2.5
v 15 0.4 -2.5
v 15 1.2 -2.5
v 11 1.6 -2.9
v 11 2 -2.9
v 11.4 1.6 -2.9
v 11.4 2 -2.9
v 11.4 2.4 -2.9
v 11.8 2 -2.9
v 11.8 2.4 -2.9
v 11 1.6 -3.3
v 11 2 -3.3
v 11.4 1.6 -3.3
v 11.4 2 -3.3
v 11.4 2.4 -3.3
v 11.8 2 -3.3
v 11.8 2.4 -3.3
v 14.2 1.6 -3.3
v 14.2 2 -3.3
v 14.6 1.6 -3.3
v 14.6 2 -3.3
v 10.2 0.8 -3.7
v 10.2 1.2 -3.7
v 10.6 0.4 -3.7
v 10.6 0.8 -3.7
v 10.6 1.2 -3.7
v 10.6 1.6 -3.7
v 11 0.4 -3.7
v 11 1.2 -3.7
v 11 1.6 -3.7
v 11.4 1.6 -3.7
v 11.4 2 -3.7
v 11.8 2 -3.7
v 11.8 2.4 -3.7
v 14.2 1.6 -3.7
v 14.2 2 -3.7
v 14.2 2.4 -3.7
v 14.6 0.4 -3.7
v 14.6 1.2 -3.7
v 15 0.4 -3.7
v 15 1.2 -3.7
v 11 0.4 -4.1
v 11 1.6 -4.1
v 11.4 0.4 -4.1
v 11.4 1.2 -4.1
v 14.2 0.4 -4.1
v 14.2 1.2 -4.1
v 14.6 0.4 -4.1
v 14.6 1.6 -4.1
v 11.4 0.4 -4.5
v 11.4 1.2 -4.5
v 14.2 0.4 -4.5
v 14.2 1.2 -4.5
v 11.4 0.4 -1.7
v 14.2 0.4 -1.7
v 11 0.4 -2.1
v 11.4 0.4 -2.1
v 14.2 0.4 -2.1
v 14.6 0.4 -2.1
v 10.6 0.4 -2.5
v 11 0.4 -2.5
v 14.6 0.4 -2.5
v 15 0.4 -2.5
v 10.6 0.4 -3.7
v 11 0.4 -3.7
v 14.6 0.4 -3.7
v 15 0.4 -3.7
v 11 0.4 -4.1
v 11.4 0.4 -4.1
v 14.2 0.4 -4.1
v 14.6 0.4 -4.1
v 11.4 0.4 -4.5
v 14.2 0.4 -4.5
v 10.2 0.8 -2.5
v 10.6 0.8 -2.5
v 10.2 0.8 -3.7
v 10.6 0.8 -3.7
v 11.4 1.2 -1.7
v 13 1.2 -1.7
v 13.8 1.2 -1.7
v 14.2 1.2 -1.7
v 11.4 1.2 -2.1
v 13 1.2 -2.1
v 13.8 1.2 -2.1
v 14.2 1.2 -2.1
v 10.2 1.2 -2.5
v 10.6 1.2 -2.5
v 14.6 1.2 -2.5
v 15 1.2 -2.5
v 10.2 1.2 -3.7
v 10.6 1.2 -3.7
v 14.6 1.2 -3.7
v 15 1.2 -3.7
v 11.4 1.2 -4.1
v 14.2 1.2 -4.1
v 11.4 1.2 -4.5
v 14.2 1.2 -4.5
v 13 1.6 -1.7
v 13.8 1.6 -1.7
v 11 1.6 -2.1
v 13 1.6 -2.1
v 13.4 1.6 -2.1
v 13.8 1.6 -2.1
v 14.2 1.6 -2.1
v 10.6 1.6 -2.5
v 11 1.6 -2.5
v 11.4 1.6 -2.5
v 13 1.6 -2.5
v 13.4 1.6 -2.5
v 14.2 1.6 -2.5
v 11 1.6 -2.9
v 11.4 1.6 -2.9
v 11 1.6 -3.3
v 11.4 1.6 -3.3
v 14.2 1.6 -3.3
v 14.6 1.6 -3.3
v 10.6 1.6 -3.7
v 11 1.6 -3.7
v 11.4 1.6 -3.7
v 14.2 1.6 -3.7
v 11 1.6 -4.1
v 14.6 1.6 -4.1
v 13 2 -2.1
v 13.4 2 -2.1
v 14.2 2 -2.1
v 14.6 2 -2.1
v 11.4 2 -2.5
v 11.8 2 -2.5
v 13 2 -2.5
v 13.4 2 -2.5
v 14.2 2 -2.5
v 11 2 -2.9
v 11.4 2 -2.9
v 11.8 2 -2.9
v 11 2 -3.3
v 11.4 2 -3.3
v 11.8 2 -3.3
v 14.2 2 -3.3
v 14.6 2 -3.3
v 11.4 2 -3.7
v 11.8 2 -3.7
v 11.8 2.4 -2.5
v 14.2 2.4 -2.5
v 11.4 2.4 -2.9
v 11.8 2.4 -2.9
v 11.4 2.4 -3.3
v 11.8 2.4 -3.3
v 11.8 2.4 -3.7
v 14.2 2.4 -3.7

# faces
f 3/1/1 2/1/1 1/1/1
f 4/1/1 2/1/1 3/1/1
f 7/2/1 6/2/1 5/2/1
f 8/2/1 6/2/1 7/2/1
f 11/1/1 10/1/1 9/1/1
f 12/1/1 10/1/1 11/1/1
f 17/2/1 14/2/1 13/2/1
f 18/2/1 16/2/1 15/2/1
f 19/2/1 17/2/1 13/2/1
f 20/2/1 17/2/1 19/2/1
f 23/2/1 16/2/1 18/2/1
f 24/2/1 16/2/1 23/2/1
f 25/1/1 22/1/1 21/1/1
f 26/1/1 22/1/1 25/1/1
f 31/2/1 28/2/1 27/2/1
f 32/2/1 28/2/1 31/2/1
f 33/2/1 30/2/1 29/2/1
f 34/2/1 30/2/1 33/2/1
f 39/2/1 36/2/1 35/2/1
f 40/2/1 36/2/1 39/2/1
f 41/2/1 38/2/1 37/2/1
f 42/2/1 38/2/1 41/2/1
f 43/1/1 41/1/1 40/1/1
f 44/1/1 41/1/1 43/1/1
f 49/1/1 46/1/1 45/1/1
f 50/1/1 46/1/1 49/1/1
f 51/1/1 48/1/1 47/1/1
f 52/1/1 48/1/1 51/1/1
f 55/1/1 54/1/1 53/1/1
f 56/1/1 54/1/1 55/1/1
f 58/1/1 57/1/1 56/1/1
f 59/1/1 57/1/1 58/1/1
f 62/1/1 61/1/1 60/1/1
f 63/1/1 61/1/1 62/1/1
f 64/1/2 65/1/2 66/1/2
f 66/1/2 65/1/2 67/1/2
f 68/1/2 69/1/2 70/1/2
f 70/1/2 69/1/2 71/1/2
f 72/2/2 73/2/2 76/2/2
f 76/2/2 73/2/2 77/2/2
f 74/2/2 75/2/2 78/2/2
f 78/2/2 75/2/2 79/2/2
f 80/2/2 81/2/2 83/2/2
f 83/2/2 81/2/2 84/2/2
f 82/1/2 83/1/2 85/1/2
f 83/1/2 84/1/2 85/1/2
f 85/1/2 84/1/2 86/1/2
f 87/2/2 88/2/2 91/2/2
f 89/2/2 90/2/2 92/2/2
f 87/2/2 91/2/2 93/2/2
f 91/2/2 92/2/2 93/2/2
f 93/2/2 92/2/2 94/2/2
f 92/2/2 90/2/2 95/2/2
f 94/2/2 92/2/2 95/2/2
f 93/1/2 94/1/2 96/1/2
f 96/1/2 94/1/2 97/1/2
f 98/2/2 99/2/2 100/2/2
f 100/2/2 99/2/2 101/2/2
f 104/2/3 103/2/3 102/2/3
f 106/2/3 104/2/3 102/2/3
f 106/1/3 105/1/3 104/1/3
f 107/1/3 105/1/3 106/1/3
f 108/2/3 106/2/3 102/2/3
f 109/2/3 106/2/3 108/2/3
f 112/2/3 111/2/3 110/2/3
f 113/2/3 111/2/3 112/2/3
f 114/2/3 111/2/3 113/2/3
f 115/2/3 111/2/3 114/2/3
f 117/1/3 116/1/3 115/1/3
f 118/1/3 116/1/3 117/1/3
f 122/2/3 120/2/3 119/2/3
f 123/2/3 120/2/3 122/2/3
f 125/2/3 122/2/3 121/2/3
f 125/2/3 123/2/3 122/2/3
f 126/1/3 124/1/3 123/1/3
f 126/2/3 123/2/3 125/2/3
f 127/1/3 124/1/3 126/1/3
f 131/1/3 129/1/3 128/1/3
f 132/1/3 129/1/3 131/1/3
f 134/2/3 131/2/3 130/2/3
f 134/2/3 132/2/3 131/2/3
f 135/1/3 133/1/3 132/1/3
f 135/2/3 132/2/3 134/2/3
f 136/1/3 133/1/3 135/1/3
f 139/2/3 138/2/3 137/2/3
f 141/2/3 139/2/3 137/2/3
f 142/1/3 140/1/3 139/1/3
f 142/2/3 139/2/3 141/2/3
f 144/1/3 140/1/3 142/1/3
f 145/2/3 144/2/3 143/2/3
f 146/1/3 140/1/3 144/1/3
f 146/2/3 144/2/3 145/2/3
f 147/1/3 140/1/3 146/1/3
f 150/2/3 149/2/3 148/2/3
f 151/2/3 149/2/3 150/2/3
f 154/1/3 153/1/3 152/1/3
f 155/1/3 153/1/3 154/1/3
f 157/1/3 156/1/3 155/1/3
f 158/1/3 156/1/3 157/1/3
f 159/1/4 160/1/4 161/1/4
f 161/1/4 160/1/4 162/1/4
f 162/1/4 163/1/4 164/1/4
f 164/1/4 163/1/4 165/1/4
f 166/1/4 167/1/4 168/1/4
f 168/1/4 167/1/4 169/1/4
f 170/1/4 171/1/4 173/1/4
f 173/1/4 171/1/4 174/1/4
f 172/2/4 173/2/4 176/2/4
f 173/2/4 174/2/4 176/2/4
f 174/1/4 175/1/4 177/1/4
f 176/2/4 174/2/4 177/2/4
f 177/1/4 175/1/4 178/1/4
f 179/2/4 180/2/4 181/2/4
f 179/2/4 181/2/4 183/2/4
f 181/1/4 182/1/4 184/1/4
f 183/2/4 181/2/4 184/2/4
f 184/1/4 182/1/4 185/1/4
f 186/2/4 187/2/4 188/2/4
f 188/2/4 187/2/4 189/2/4
f 190/2/4 191/2/4 192/2/4
f 192/2/4 191/2/4 193/2/4
f 193/2/4 191/2/4 195/2/4
f 194/2/4 195/2/4 196/2/4
f 195/2/4 191/2/4 197/2/4
f 196/2/4 195/2/4 197/2/4
f 198/2/4 199/2/4 200/2/4
f 200/2/4 199/2/4 201/2/4
f 205/2/5 203/2/5 202/2/5
f 206/2/5 203/2/5 205/2/5
f 209/2/5 205/2/5 204/2/5
f 209/2/5 207/2/5 206/2/5
f 209/2/5 206/2/5 205/2/5
f 210/2/5 207/2/5 209/2/5
f 212/2/5 209/2/5 208/2/5
f 212/2/5 211/2/5 210/2/5
f 212/2/5 210/2/5 209/2/5
f 213/2/5 211/2/5 212/2/5
f 214/2/5 211/2/5 213/2/5
f 215/2/5 211/2/5 214/2/5
f 216/2/5 214/2/5 213/2/5
f 217/2/5 214/2/5 216/2/5
f 218/2/5 214/2/5 217/2/5
f 219/2/5 214/2/5 218/2/5
f 220/2/5 218/2/5 217/2/5
f 221/2/5 218/2/5 220/2/5
f 224/1/5 223/1/5 222/1/5
f 225/1/5 223/1/5 224/1/5
f 226/2/6 227/2/6 230/2/6
f 230/2/6 227/2/6 231/2/6
f 228/2/6 229/2/6 232/2/6
f 232/2/6 229/2/6 233/2/6
f 234/1/6 235/1/6 238/1/6
f 238/1/6 235/1/6 239/1/6
f 236/2/6 237/2/6 240/2/6
f 240/2/6 237/2/6 241/2/6
f 242/2/6 243/2/6 244/2/6
f 244/2/6 243/2/6 245/2/6
f 246/1/6 247/1/6 249/1/6
f 249/1/6 247/1/6 250/1/6
f 250/1/6 247/1/6 251/1/6
f 248/2/6 249/2/6 254/2/6
f 254/2/6 249/2/6 255/2/6
f 255/2/6 249/2/6 256/2/6
f 250/2/6 251/2/6 257/2/6
f 251/2/6 252/2/6 257/2/6
f 257/2/6 252/2/6 258/2/6
f 254/2/6 255/2/6 259/2/6
f 253/1/6 254/1/6 259/1/6
f 259/2/6 255/2/6 260/2/6
f 253/1/6 259/1/6 261/1/6
f 253/1/6 261/1/6 265/1/6
f 261/2/6 262/2/6 266/2/6
f 265/1/6 261/1/6 266/1/6
f 266/2/6 262/2/6 267/2/6
f 263/2/6 264/2/6 268/2/6
f 266/2/6 267/2/6 269/2/6
f 267/2/6 268/2/6 269/2/6
f 268/2/6 264/2/6 270/2/6
f 269/2/6 268/2/6 270/2/6
f 271/1/6 272/1/6 277/1/6
f 277/1/6 272/1/6 278/1/6
f 273/1/6 274/1/6 279/1/6
f 275/2/6 276/2/6 281/2/6
f 281/2/6 276/2/6 282/2/6
f 280/1/6 281/1/6 283/1/6
f 283/1/6 281/1/6 284/1/6
f 279/1/6 274/1/6 286/1/6
f 286/1/6 274/1/6 287/1/6
f 284/2/6 285/2/6 288/2/6
f 288/2/6 285/2/6 289/2/6
f 290/1/6 291/1/6 293/1/6
f 292/1/6 293/1/6 294/1/6
f 293/1/6 291/1/6 295/1/6
f 294/1/6 293/1/6 295/1/6
f 295/1/6 291/1/6 296/1/6
f 296/1/6 291/1/6 297/1/6
