# MagicaVoxel @ Ephtracy

# group
o 

# material
mtllib flecha.mtl
usemtl palette

# normals
vn -1 0 0
vn 1 0 0
vn 0 0 1
vn 0 0 -1
vn 0 -1 0
vn 0 1 0

# texcoords
vt 0.302734 0.5
vt 0.912109 0.5
vt 0.927734 0.5

# verts
v 5.4 5.2 6.4
v 5.4 5.2 6.3
v 5.4 5.3 6.4
v 5.4 5.3 6.3
v 5.5 5.1 6.4
v 5.5 5.1 6.3
v 5.5 5.2 6.5
v 5.5 5.2 6.4
v 5.5 5.2 6.3
v 5.5 5.2 6.2
v 5.5 5.3 6.5
v 5.5 5.3 6.4
v 5.5 5.3 6.3
v 5.5 5.3 6.2
v 5.5 5.4 6.4
v 5.5 5.4 6.3
v 6.8 5.1 6.4
v 6.8 5.1 6.3
v 6.8 5.2 6.5
v 6.8 5.2 6.4
v 6.8 5.2 6.3
v 6.8 5.2 6.2
v 6.8 5.3 6.5
v 6.8 5.3 6.4
v 6.8 5.3 6.3
v 6.8 5.3 6.2
v 6.8 5.4 6.4
v 6.8 5.4 6.3
v 6.9 5 6.4
v 6.9 5 6.3
v 6.9 5.1 6.4
v 6.9 5.1 6.3
v 6.9 5.2 6.6
v 6.9 5.2 6.5
v 6.9 5.2 6.2
v 6.9 5.2 6.1
v 6.9 5.3 6.6
v 6.9 5.3 6.5
v 6.9 5.3 6.2
v 6.9 5.3 6.1
v 6.9 5.4 6.4
v 6.9 5.4 6.3
v 6.9 5.5 6.4
v 6.9 5.5 6.3
v 5.6 5.1 6.4
v 5.6 5.1 6.3
v 5.6 5.2 6.5
v 5.6 5.2 6.4
v 5.6 5.2 6.3
v 5.6 5.2 6.2
v 5.6 5.3 6.5
v 5.6 5.3 6.4
v 5.6 5.3 6.3
v 5.6 5.3 6.2
v 5.6 5.4 6.4
v 5.6 5.4 6.3
v 6.9 5.1 6.4
v 6.9 5.1 6.3
v 6.9 5.2 6.5
v 6.9 5.2 6.4
v 6.9 5.2 6.3
v 6.9 5.2 6.2
v 6.9 5.3 6.5
v 6.9 5.3 6.4
v 6.9 5.3 6.3
v 6.9 5.3 6.2
v 6.9 5.4 6.4
v 6.9 5.4 6.3
v 7 5 6.4
v 7 5 6.3
v 7 5.1 6.4
v 7 5.1 6.3
v 7 5.2 6.6
v 7 5.2 6.5
v 7 5.2 6.4
v 7 5.2 6.3
v 7 5.2 6.2
v 7 5.2 6.1
v 7 5.3 6.6
v 7 5.3 6.5
v 7 5.3 6.4
v 7 5.3 6.3
v 7 5.3 6.2
v 7 5.3 6.1
v 7 5.4 6.4
v 7 5.4 6.3
v 7 5.5 6.4
v 7 5.5 6.3
v 6.9 5.2 6.6
v 6.9 5.3 6.6
v 7 5.2 6.6
v 7 5.3 6.6
v 5.5 5.2 6.5
v 5.5 5.3 6.5
v 5.6 5.2 6.5
v 5.6 5.3 6.5
v 6.8 5.2 6.5
v 6.8 5.3 6.5
v 6.9 5.2 6.5
v 6.9 5.3 6.5
v 5.4 5.2 6.4
v 5.4 5.3 6.4
v 5.5 5.1 6.4
v 5.5 5.2 6.4
v 5.5 5.3 6.4
v 5.5 5.4 6.4
v 5.6 5.1 6.4
v 5.6 5.2 6.4
v 5.6 5.3 6.4
v 5.6 5.4 6.4
v 6.8 5.1 6.4
v 6.8 5.2 6.4
v 6.8 5.3 6.4
v 6.8 5.4 6.4
v 6.9 5 6.4
v 6.9 5.1 6.4
v 6.9 5.2 6.4
v 6.9 5.3 6.4
v 6.9 5.4 6.4
v 6.9 5.5 6.4
v 7 5 6.4
v 7 5.1 6.4
v 7 5.2 6.4
v 7 5.3 6.4
v 7 5.4 6.4
v 7 5.5 6.4
v 6.9 5.2 6.2
v 6.9 5.3 6.2
v 7 5.2 6.2
v 7 5.3 6.2
v 6.9 5.2 6.5
v 6.9 5.3 6.5
v 7 5.2 6.5
v 7 5.3 6.5
v 5.4 5.2 6.3
v 5.4 5.3 6.3
v 5.5 5.1 6.3
v 5.5 5.2 6.3
v 5.5 5.3 6.3
v 5.5 5.4 6.3
v 5.6 5.1 6.3
v 5.6 5.2 6.3
v 5.6 5.3 6.3
v 5.6 5.4 6.3
v 6.8 5.1 6.3
v 6.8 5.2 6.3
v 6.8 5.3 6.3
v 6.8 5.4 6.3
v 6.9 5 6.3
v 6.9 5.1 6.3
v 6.9 5.2 6.3
v 6.9 5.3 6.3
v 6.9 5.4 6.3
v 6.9 5.5 6.3
v 7 5 6.3
v 7 5.1 6.3
v 7 5.2 6.3
v 7 5.3 6.3
v 7 5.4 6.3
v 7 5.5 6.3
v 5.5 5.2 6.2
v 5.5 5.3 6.2
v 5.6 5.2 6.2
v 5.6 5.3 6.2
v 6.8 5.2 6.2
v 6.8 5.3 6.2
v 6.9 5.2 6.2
v 6.9 5.3 6.2
v 6.9 5.2 6.1
v 6.9 5.3 6.1
v 7 5.2 6.1
v 7 5.3 6.1
v 6.9 5 6.4
v 7 5 6.4
v 6.9 5 6.3
v 7 5 6.3
v 5.5 5.1 6.4
v 5.6 5.1 6.4
v 6.8 5.1 6.4
v 6.9 5.1 6.4
v 5.5 5.1 6.3
v 5.6 5.1 6.3
v 6.8 5.1 6.3
v 6.9 5.1 6.3
v 6.9 5.2 6.6
v 7 5.2 6.6
v 5.5 5.2 6.5
v 5.6 5.2 6.5
v 6.8 5.2 6.5
v 6.9 5.2 6.5
v 7 5.2 6.5
v 5.4 5.2 6.4
v 5.5 5.2 6.4
v 5.6 5.2 6.4
v 6.8 5.2 6.4
v 6.9 5.2 6.4
v 7 5.2 6.4
v 5.4 5.2 6.3
v 5.5 5.2 6.3
v 5.6 5.2 6.3
v 6.8 5.2 6.3
v 6.9 5.2 6.3
v 7 5.2 6.3
v 5.5 5.2 6.2
v 5.6 5.2 6.2
v 6.8 5.2 6.2
v 6.9 5.2 6.2
v 7 5.2 6.2
v 6.9 5.2 6.1
v 7 5.2 6.1
v 6.9 5.4 6.4
v 7 5.4 6.4
v 6.9 5.4 6.3
v 7 5.4 6.3
v 6.9 5.1 6.4
v 7 5.1 6.4
v 6.9 5.1 6.3
v 7 5.1 6.3
v 6.9 5.3 6.6
v 7 5.3 6.6
v 5.5 5.3 6.5
v 5.6 5.3 6.5
v 6.8 5.3 6.5
v 6.9 5.3 6.5
v 7 5.3 6.5
v 5.4 5.3 6.4
v 5.5 5.3 6.4
v 5.6 5.3 6.4
v 6.8 5.3 6.4
v 6.9 5.3 6.4
v 7 5.3 6.4
v 5.4 5.3 6.3
v 5.5 5.3 6.3
v 5.6 5.3 6.3
v 6.8 5.3 6.3
v 6.9 5.3 6.3
v 7 5.3 6.3
v 5.5 5.3 6.2
v 5.6 5.3 6.2
v 6.8 5.3 6.2
v 6.9 5.3 6.2
v 7 5.3 6.2
v 6.9 5.3 6.1
v 7 5.3 6.1
v 5.5 5.4 6.4
v 5.6 5.4 6.4
v 6.8 5.4 6.4
v 6.9 5.4 6.4
v 5.5 5.4 6.3
v 5.6 5.4 6.3
v 6.8 5.4 6.3
v 6.9 5.4 6.3
v 6.9 5.5 6.4
v 7 5.5 6.4
v 6.9 5.5 6.3
v 7 5.5 6.3

# faces
f 3/3/1 2/3/1 1/3/1
f 4/3/1 2/3/1 3/3/1
f 8/3/1 6/3/1 5/3/1
f 9/3/1 6/3/1 8/3/1
f 11/3/1 8/3/1 7/3/1
f 12/3/1 8/3/1 11/3/1
f 13/3/1 10/3/1 9/3/1
f 14/3/1 10/3/1 13/3/1
f 15/3/1 13/3/1 12/3/1
f 16/3/1 13/3/1 15/3/1
f 20/2/1 18/2/1 17/2/1
f 21/2/1 18/2/1 20/2/1
f 23/2/1 20/2/1 19/2/1
f 24/2/1 20/2/1 23/2/1
f 25/2/1 22/2/1 21/2/1
f 26/2/1 22/2/1 25/2/1
f 27/2/1 25/2/1 24/2/1
f 28/2/1 25/2/1 27/2/1
f 31/2/1 30/2/1 29/2/1
f 32/2/1 30/2/1 31/2/1
f 37/2/1 34/2/1 33/2/1
f 38/2/1 34/2/1 37/2/1
f 39/2/1 36/2/1 35/2/1
f 40/2/1 36/2/1 39/2/1
f 43/2/1 42/2/1 41/2/1
f 44/2/1 42/2/1 43/2/1
f 45/3/2 46/3/2 48/3/2
f 48/3/2 46/3/2 49/3/2
f 47/3/2 48/3/2 51/3/2
f 51/3/2 48/3/2 52/3/2
f 49/3/2 50/3/2 53/3/2
f 53/3/2 50/3/2 54/3/2
f 52/3/2 53/3/2 55/3/2
f 55/3/2 53/3/2 56/3/2
f 57/2/2 58/2/2 60/2/2
f 60/2/2 58/2/2 61/2/2
f 59/2/2 60/2/2 63/2/2
f 63/2/2 60/2/2 64/2/2
f 61/2/2 62/2/2 65/2/2
f 65/2/2 62/2/2 66/2/2
f 64/2/2 65/2/2 67/2/2
f 67/2/2 65/2/2 68/2/2
f 69/2/2 70/2/2 71/2/2
f 71/2/2 70/2/2 72/2/2
f 73/2/2 74/2/2 79/2/2
f 79/2/2 74/2/2 80/2/2
f 75/1/2 76/1/2 81/1/2
f 81/1/2 76/1/2 82/1/2
f 77/2/2 78/2/2 83/2/2
f 83/2/2 78/2/2 84/2/2
f 85/2/2 86/2/2 87/2/2
f 87/2/2 86/2/2 88/2/2
f 91/2/3 90/2/3 89/2/3
f 92/2/3 90/2/3 91/2/3
f 95/3/3 94/3/3 93/3/3
f 96/3/3 94/3/3 95/3/3
f 99/2/3 98/2/3 97/2/3
f 100/2/3 98/2/3 99/2/3
f 104/3/3 102/3/3 101/3/3
f 105/3/3 102/3/3 104/3/3
f 107/3/3 104/3/3 103/3/3
f 108/3/3 104/3/3 107/3/3
f 109/3/3 106/3/3 105/3/3
f 110/3/3 106/3/3 109/3/3
f 112/1/3 109/1/3 108/1/3
f 113/1/3 109/1/3 112/1/3
f 116/2/3 112/2/3 111/2/3
f 117/2/3 112/2/3 116/2/3
f 118/2/3 114/2/3 113/2/3
f 119/2/3 114/2/3 118/2/3
f 121/2/3 116/2/3 115/2/3
f 122/2/3 116/2/3 121/2/3
f 123/1/3 118/1/3 117/1/3
f 124/1/3 118/1/3 123/1/3
f 125/2/3 120/2/3 119/2/3
f 126/2/3 120/2/3 125/2/3
f 129/2/3 128/2/3 127/2/3
f 130/2/3 128/2/3 129/2/3
f 131/2/4 132/2/4 133/2/4
f 133/2/4 132/2/4 134/2/4
f 135/3/4 136/3/4 138/3/4
f 138/3/4 136/3/4 139/3/4
f 137/3/4 138/3/4 141/3/4
f 141/3/4 138/3/4 142/3/4
f 139/3/4 140/3/4 143/3/4
f 143/3/4 140/3/4 144/3/4
f 142/1/4 143/1/4 146/1/4
f 146/1/4 143/1/4 147/1/4
f 145/2/4 146/2/4 150/2/4
f 150/2/4 146/2/4 151/2/4
f 147/2/4 148/2/4 152/2/4
f 152/2/4 148/2/4 153/2/4
f 149/2/4 150/2/4 155/2/4
f 155/2/4 150/2/4 156/2/4
f 151/1/4 152/1/4 157/1/4
f 157/1/4 152/1/4 158/1/4
f 153/2/4 154/2/4 159/2/4
f 159/2/4 154/2/4 160/2/4
f 161/3/4 162/3/4 163/3/4
f 163/3/4 162/3/4 164/3/4
f 165/2/4 166/2/4 167/2/4
f 167/2/4 166/2/4 168/2/4
f 169/2/4 170/2/4 171/2/4
f 171/2/4 170/2/4 172/2/4
f 175/2/5 174/2/5 173/2/5
f 176/2/5 174/2/5 175/2/5
f 181/3/5 178/3/5 177/3/5
f 182/3/5 178/3/5 181/3/5
f 183/2/5 180/2/5 179/2/5
f 184/2/5 180/2/5 183/2/5
f 190/2/5 186/2/5 185/2/5
f 191/2/5 186/2/5 190/2/5
f 193/3/5 188/3/5 187/3/5
f 194/3/5 188/3/5 193/3/5
f 195/2/5 190/2/5 189/2/5
f 196/2/5 190/2/5 195/2/5
f 198/3/5 193/3/5 192/3/5
f 199/3/5 193/3/5 198/3/5
f 200/1/5 195/1/5 194/1/5
f 201/1/5 195/1/5 200/1/5
f 202/1/5 197/1/5 196/1/5
f 203/1/5 197/1/5 202/1/5
f 204/3/5 200/3/5 199/3/5
f 205/3/5 200/3/5 204/3/5
f 206/2/5 202/2/5 201/2/5
f 207/2/5 202/2/5 206/2/5
f 209/2/5 208/2/5 207/2/5
f 210/2/5 208/2/5 209/2/5
f 213/2/5 212/2/5 211/2/5
f 214/2/5 212/2/5 213/2/5
f 215/2/6 216/2/6 217/2/6
f 217/2/6 216/2/6 218/2/6
f 219/2/6 220/2/6 224/2/6
f 224/2/6 220/2/6 225/2/6
f 221/3/6 222/3/6 227/3/6
f 227/3/6 222/3/6 228/3/6
f 223/2/6 224/2/6 229/2/6
f 229/2/6 224/2/6 230/2/6
f 226/3/6 227/3/6 232/3/6
f 232/3/6 227/3/6 233/3/6
f 228/1/6 229/1/6 234/1/6
f 234/1/6 229/1/6 235/1/6
f 230/1/6 231/1/6 236/1/6
f 236/1/6 231/1/6 237/1/6
f 233/3/6 234/3/6 238/3/6
f 238/3/6 234/3/6 239/3/6
f 235/2/6 236/2/6 240/2/6
f 240/2/6 236/2/6 241/2/6
f 241/2/6 242/2/6 243/2/6
f 243/2/6 242/2/6 244/2/6
f 245/3/6 246/3/6 249/3/6
f 249/3/6 246/3/6 250/3/6
f 247/2/6 248/2/6 251/2/6
f 251/2/6 248/2/6 252/2/6
f 253/2/6 254/2/6 255/2/6
f 255/2/6 254/2/6 256/2/6
